<?xml version="1.0" encoding="UTF-8"?>
<svg xmlns="http://www.w3.org/2000/svg" viewBox="0 0 512 512" width="512" height="512">
  <defs>
    <linearGradient id="dg" x1="0.2" y1="0" x2="0.8" y2="1">
      <stop offset="0%" stop-color="#0E6872"/>
      <stop offset="50%" stop-color="#0A5560"/>
      <stop offset="100%" stop-color="#064048"/>
    </linearGradient>
    <linearGradient id="eg" x1="0" y1="0" x2="1" y2="1">
      <stop offset="0%" stop-color="#1AA0A8"/>
      <stop offset="100%" stop-color="#48CCD8"/>
    </linearGradient>
  </defs>
  <!-- Water Drop -->
  <path d="M256 25 C256 25, 180 165, 155 235 C120 330, 135 395, 170 430 C200 460, 230 472, 256 474 C282 472, 312 460, 342 430 C377 395, 392 330, 357 235 C332 165, 256 25, 256 25Z" fill="url(#dg)"/>
  <!-- Highlight -->
  <path d="M230 90 C225 120, 215 180, 218 240 C220 260, 225 250, 228 220 C232 180, 235 130, 233 100 Z" fill="rgba(80,200,210,0.12)" />
  <!-- Enso Circle -->
  <circle cx="256" cy="320" r="100" fill="none" stroke="url(#eg)" stroke-width="26" stroke-linecap="round" stroke-dasharray="580 48" stroke-dashoffset="30" />
</svg>